Coordinates
nRows=5
nColumns=38

# SIMM Motion File Header:
name Coordinates
datacolumns 38
datarows 5
otherdata 1
range 1.64130000000000000000 1.64530000000000000000

Units are S.I. units (second, meters, Newtons, ...)
Angles are in degrees.

endheader
time	pelvis_tilt	pelvis_list	pelvis_rotation	pelvis_tx	pelvis_ty	pelvis_tz	hip_flexion_r	hip_adduction_r	hip_rotation_r	knee_angle_r	ankle_angle_r	subtalar_angle_r	mtp_angle_r	hip_flexion_l	hip_adduction_l	hip_rotation_l	knee_angle_l	ankle_angle_l	subtalar_angle_l	mtp_angle_l	lumbar_extension	lumbar_bending	lumbar_rotation	arm_flex_r	arm_add_r	arm_rot_r	elbow_flex_r	pro_sup_r	wrist_flex_r	wrist_dev_r	arm_flex_l	arm_add_l	arm_rot_l	elbow_flex_l	pro_sup_l	wrist_flex_l	wrist_dev_l
      1.64130000000000000000	    -11.67444857572890800000	     -3.01126952326075560000	     -8.37932197945421290000	      1.14319877592463180000	      0.94433899519501097000	     -0.32305943582583624000	      8.66603693780795760000	     11.58342015763916400000	      6.44862556373310540000	    -40.32426921161865600000	     15.36171139336578900000	     -0.00000000000005507749	      0.00000000000006253827	     56.03895005039579800000	     -7.24788592724260730000	     -1.64251465714582960000	   -128.85598491251235000000	     -3.36207133669676850000	      0.00000000000000199689	     -0.00000000000000178116	     -1.81804093112543970000	      7.41014262617272830000	     16.74002123086119900000	    -21.15919256234552000000	    -10.12743085150061300000	    -13.33400936387190100000	     96.68822743065190700000	     78.70234470834111600000	      0.00000000000000961213	     -0.00000000000000386864	    -41.59212397913912400000	    -19.32486126311275500000	     -0.83134295378604439000	     84.23300304618376800000	     94.41636297908914300000	     -0.00000000000000089595	     -0.00000000000000430281
      1.64230000000000010000	    -11.68489227641989800000	     -2.88792273799509850000	     -8.31507136897905140000	      1.14351832086299580000	      0.94497705678672062000	     -0.32308459864581152000	      8.25669556438964140000	     11.37198763326193600000	      6.51475701052713150000	    -40.02163801228334700000	     14.78562459745591400000	     -0.00000000000005584847	      0.00000000000006367318	     56.35300734028881200000	     -7.11113981598892320000	     -1.66220873235097510000	   -128.38052930012861000000	     -3.30610924688988380000	      0.00000000000000201737	     -0.00000000000000194880	     -1.73570918444582340000	      7.26134721123146140000	     16.82613136104339800000	    -21.12006230980505000000	    -10.11784039883639400000	    -13.36549571394883200000	     97.14693273952461500000	     78.78427316482178400000	      0.00000000000000977718	     -0.00000000000000397890	    -41.88603205928392000000	    -19.40302755403604000000	     -0.96084174092105834000	     84.45051463813413800000	     94.21866175104017300000	     -0.00000000000000097609	     -0.00000000000000438961
      1.64330000000000000000	    -11.69187679511558600000	     -2.76238347687575960000	     -8.24701832536557160000	      1.14384920387494970000	      0.94562869411687545000	     -0.32311333797079311000	      7.84237556078559890000	     11.15693683410008100000	      6.57627289904977270000	    -39.71229151399988000000	     14.19381672470922400000	     -0.00000000000005665286	      0.00000000000006480619	     56.65655867191256300000	     -6.97027273594766680000	     -1.68503484469220430000	   -127.89636091475391000000	     -3.25369327878063030000	      0.00000000000000202849	     -0.00000000000000211351	     -1.65609129990982940000	      7.10912983764752580000	     16.90660511312444200000	    -21.08263845776132700000	    -10.10768548197234100000	    -13.39330850383266700000	     97.60250079149314200000	     78.85984443412290500000	      0.00000000000000994309	     -0.00000000000000409833	    -42.18099549749094700000	    -19.48076962931334300000	     -1.09140986269172190000	     84.67119125408490300000	     94.03528004667762700000	     -0.00000000000000105231	     -0.00000000000000447731
      1.64430000000000010000	    -11.69547227662574000000	     -2.63450935479733110000	     -8.17515754580359120000	      1.14419128558051720000	      0.94629339356620013000	     -0.32314574945223451000	      7.42315281883573160000	     10.93818821371591600000	      6.63299282423965230000	    -39.39614443004851600000	     13.58660341433048700000	     -0.00000000000005750491	      0.00000000000006588534	     56.94964552694882800000	     -6.82516189433880790000	     -1.71107229297857270000	   -127.40354060439257000000	     -3.20488165172280940000	      0.00000000000000203554	     -0.00000000000000228374	     -1.57914355165898960000	      6.95333766482730820000	     16.98141480509071900000	    -21.04691384048245300000	    -10.09695779466738100000	    -13.41745074148782600000	     98.05477135057556400000	     78.92935372804198800000	      0.00000000000001010988	     -0.00000000000000425292	    -42.47703872803672500000	    -19.55799081140007800000	     -1.22310143592481870000	     84.89486572502406100000	     93.86628906318742300000	     -0.00000000000000112599	     -0.00000000000000456421
      1.64530000000000000000	    -11.69577007460221600000	     -2.50415939214035840000	     -8.09947649076759650000	      1.14454441389378840000	      0.94697060158897006000	     -0.32318194751944429000	      6.99913125473563460000	     10.71566727936991700000	      6.68472755458338770000	    -39.07312638753052200000	     12.96433275132027200000	     -0.00000000000005837935	      0.00000000000006694286	     57.23234102559393900000	     -6.67567846717321520000	     -1.74038737799731400000	   -126.90212999848450000000	     -3.15973361454215950000	      0.00000000000000203923	     -0.00000000000000245133	     -1.50479849602785580000	      6.79382419328158880000	     17.05052959395544600000	    -21.01288709299968400000	    -10.08565099128635500000	    -13.43793512049011000000	     98.50358652664922900000	     78.99311774543876700000	      0.00000000000001027627	     -0.00000000000000441403	    -42.77418925009278900000	    -19.63459735379767000000	     -1.35597015582618210000	     85.12138094460522100000	     93.71167990214067300000	     -0.00000000000000119536	     -0.00000000000000464750
